<svg xmlns="http://www.w3.org/2000/svg" xmlns:xlink="http://www.w3.org/1999/xlink" width="178" height="208" viewBox="0 0 178 208">
  <defs>
    <path id="octomonkey-a" d="M28,73 C36.8346827,73 48,54.7308009 48,39 C48,25.5252054 38.7904452,15 28,15 C17.2095548,15 8,25.5252054 8,39 C8,54.7308009 19.1653173,73 28,73 Z"/>
    <filter id="octomonkey-b" width="105%" height="103.4%" x="-2.5%" y="-1.7%" filterUnits="objectBoundingBox">
      <feOffset dy="2" in="SourceAlpha" result="shadowOffsetInner1"/>
      <feComposite in="shadowOffsetInner1" in2="SourceAlpha" k2="-1" k3="1" operator="arithmetic" result="shadowInnerInner1"/>
      <feColorMatrix in="shadowInnerInner1" values="0 0 0 0 0   0 0 0 0 0   0 0 0 0 0  0 0 0 0.15 0"/>
    </filter>
    <path id="octomonkey-c" d="M150,73 C158.834683,73 170,54.7308009 170,39 C170,25.5252054 160.790445,15 150,15 C139.209555,15 130,25.5252054 130,39 C130,54.7308009 141.165317,73 150,73 Z"/>
    <filter id="octomonkey-d" width="105%" height="103.4%" x="-2.5%" y="-1.7%" filterUnits="objectBoundingBox">
      <feOffset dy="2" in="SourceAlpha" result="shadowOffsetInner1"/>
      <feComposite in="shadowOffsetInner1" in2="SourceAlpha" k2="-1" k3="1" operator="arithmetic" result="shadowInnerInner1"/>
      <feColorMatrix in="shadowInnerInner1" values="0 0 0 0 0   0 0 0 0 0   0 0 0 0 0  0 0 0 0.15 0"/>
    </filter>
    <path id="octomonkey-e" d="M145,72.91231 C145,107.105413 119.48951,108 88,108 C56.5104895,108 31,103.228869 31,72.91231 C31,65.6562155 34.5874126,58.8971137 40.7657343,53.3307946 C51.0297203,43.9873304 68.3688811,52.9332004 88,52.9332004 C107.631119,52.9332004 124.870629,43.8879319 135.134615,53.2313961 C141.312937,58.8971137 145,65.6562155 145,72.91231 Z"/>
    <filter id="octomonkey-f" width="101.8%" height="103.4%" x="-.9%" y="-1.7%" filterUnits="objectBoundingBox">
      <feOffset dy="2" in="SourceAlpha" result="shadowOffsetInner1"/>
      <feComposite in="shadowOffsetInner1" in2="SourceAlpha" k2="-1" k3="1" operator="arithmetic" result="shadowInnerInner1"/>
      <feColorMatrix in="shadowInnerInner1" values="0 0 0 0 0   0 0 0 0 0   0 0 0 0 0  0 0 0 0.15 0"/>
    </filter>
  </defs>
  <g fill="none" fill-rule="evenodd">
    <path fill="#00A453" fill-rule="nonzero" d="M161,183 C161,196.844622 128.755216,208 89,208 C49.2447844,208 17,196.74502 17,183 C17,169.155378 49.2447844,158 89,158 C128.755216,158 161,169.155378 161,183 Z"/>
    <path fill="#604935" fill-rule="nonzero" d="M68.0892492,112.940002 C64.1484968,115.507334 60.2077443,119.849851 58.5910253,127.255616 C53.2356437,129.724204 36.4621843,135.846303 26.3576908,118.862415 C26.3576908,118.862415 20.6991744,108.790575 9.88736622,108.000627 C9.88736622,108.000627 -0.621307103,107.80314 9.18005167,114.418956 C9.18005167,114.418956 16.1521522,117.677493 21.0023092,129.822948 C21.0023092,129.822948 27.3681401,150.55909 57.7826658,143.844529 L57.7826658,165.074389 C57.7826658,165.074389 57.1763962,172.677641 50.0022057,175.14623 C50.0022057,175.14623 45.7583184,178.009792 50.3053405,179.589689 C50.3053405,179.589689 70.009103,181.169585 70.009103,165.37062 L70.009103,142.067146 C70.009103,142.067146 69.2007435,132.785254 73.8488106,129.625461 L73.8488106,167.937952 C73.8488106,167.937952 73.5456758,177.1211 68.6955189,180.577124 C68.6955189,180.577124 65.4620809,186.205505 72.5352264,184.724352 C72.5352264,184.724352 86.0752478,182.848225 86.6815174,167.34549 L86.9846522,128.539282 L90.2180902,128.539282 L90.521225,167.34549 C91.1274946,182.749482 104.667516,184.724352 104.667516,184.724352 C111.740662,186.304249 108.507224,180.577124 108.507224,180.577124 C103.657067,177.1211 103.353932,167.937952 103.353932,167.937952 L103.353932,129.921691 C108.001999,133.476458 107.193639,142.067146 107.193639,142.067146 L107.193639,165.37062 C107.193639,181.169585 126.897402,179.589689 126.897402,179.589689 C131.444424,178.009792 127.200537,175.14623 127.200537,175.14623 C120.127391,172.578898 119.420077,165.074389 119.420077,165.074389 L119.420077,134.463894 C119.420077,122.515926 114.266785,116.19634 109.214538,112.937803 L68.0892492,112.940002 Z"/>
    <path fill="#000" fill-opacity=".3" fill-rule="nonzero" d="M68.4152832,112.699997 C67.4807788,113.319987 64.9229147,115.349661 63.4358516,116.957258 C72.1761279,115.185135 88.5775029,115.389725 101.771004,117.560193 C107.813057,118.554173 116.410211,121.827014 119.358398,134.671143 C119.358398,122.558525 113.869874,116.003438 108.840339,112.699997 L68.4152832,112.699997 Z"/>
    <path fill="#604935" d="M28,81 C12.536027,81 0,56.673112 0,39 C0,21.326888 12.536027,7 28,7 C43.463973,7 56,21.326888 56,39 C56,56.673112 43.463973,81 28,81 Z"/>
    <g fill-rule="nonzero">
      <use fill="#ECCAC0" fill-rule="evenodd" xlink:href="#octomonkey-a"/>
      <use fill="#000" filter="url(#octomonkey-b)" xlink:href="#octomonkey-a"/>
    </g>
    <path fill="#604935" d="M150,81 C134.536027,81 122,56.673112 122,39 C122,21.326888 134.536027,7 150,7 C165.463973,7 178,21.326888 178,39 C178,56.673112 165.463973,81 150,81 Z"/>
    <g fill-rule="nonzero">
      <use fill="#ECCAC0" fill-rule="evenodd" xlink:href="#octomonkey-c"/>
      <use fill="#000" filter="url(#octomonkey-d)" xlink:href="#octomonkey-c"/>
    </g>
    <path fill="#604935" d="M89.9828009,115 C131.394783,115 165,103.032515 165,61 C165,18.9674845 131.394783,0 89.9828009,0 C48.5708185,0 14,17.9674845 14,61 C14,104.032515 48.5708185,115 89.9828009,115 Z"/>
    <g fill-rule="nonzero">
      <use fill="#ECCAC0" fill-rule="evenodd" xlink:href="#octomonkey-e"/>
      <use fill="#000" filter="url(#octomonkey-f)" xlink:href="#octomonkey-e"/>
    </g>
    <path fill="#FFF" fill-rule="nonzero" d="M69,75.0004787 C69,84.4446572 63.6554622,92 57,92 C50.3445378,92 45,84.3452448 45,75.0004787 C45,65.5563003 50.3445378,58.0009575 57,58.0009575 C63.6554622,57.9015451 69,65.5563003 69,75.0004787 Z"/>
    <path fill="#000" fill-rule="nonzero" d="M65,75.5 C65,81.8552632 61.3544304,87 57,87 C52.5443038,87 49,81.8552632 49,75.5 C49,69.1447368 52.6455696,64 57,64 C61.3544304,64 65,69.1447368 65,75.5 Z"/>
    <path fill="#FFF" fill-rule="nonzero" d="M132,75.0004787 C132,84.4446572 126.655462,92 120,92 C113.344538,92 108,84.3452448 108,75.0004787 C108,65.5563003 113.344538,58.0009575 120,58.0009575 C126.554622,57.9015451 132,65.5563003 132,75.0004787 Z"/>
    <path fill="#000" d="M81.6662012,97.144 C82.1688837,96.952 93.8311163,96.952 94.3337988,97.144 C94.8364812,97.336 95.1380907,97.816 94.9370177,98.296 C93.9316528,101.08 91.1166311,103 88,103 C84.8833689,103 82.0683472,101.08 81.0629823,98.296 C80.8619093,97.816 81.1635188,97.336 81.6662012,97.144 Z"/>
    <path fill="#AF5C51" d="M86 88C86 89.6 84.7 91 83 91 81.4 91 80 89.7 80 88 80 86.3 81.3 85 83 85 84.6 85 86 86.3 86 88zM96 88C96 89.6 94.7 91 93 91 91.4 91 90 89.7 90 88 90 86.3 91.3 85 93 85 94.6 85 96 86.3 96 88z"/>
    <path fill="#000" fill-rule="nonzero" d="M128,75.5 C128,81.8552632 124.35443,87 120,87 C115.544304,87 112,81.8552632 112,75.5 C112,69.1447368 115.64557,64 120,64 C124.455696,64 128,69.1447368 128,75.5 Z"/>
    <path fill="#FFF" d="M58 71C58 72.6 56.7 74 55 74 53.4 74 52 72.7 52 71 52 69.3 53.3 68 55 68 56.6 68 58 69.3 58 71zM121 71C121 72.6 119.7 74 118 74 116.4 74 115 72.7 115 71 115 69.3 116.3 68 118 68 119.6 68 121 69.3 121 71z"/>
  </g>
</svg>
