<svg xmlns="http://www.w3.org/2000/svg" width="508" height="508" viewBox="0 0 508 508">
  <g fill="none">
    <path fill="#000" d="M508,254 C508,394.3 394.3,508 254,508 C113.7,508 0,394.3 0,254 C0,113.7 113.7,0 254,0 C394.3,0 508,113.7 508,254 Z"/>
    <path fill="#FFF" d="M375.1,354.7 L274,111.4 C271.1,104.4 265.3,100.7 258.3,100.7 C251.3,100.7 245.1,104.4 242.2,111.4 L131.2,378.3 L169.2,378.3 L213.1,268.3 L344.2,374.2 C349.5,378.5 353.3,380.4 358.2,380.4 C368.1,380.4 376.8,373 376.8,362.3 C376.8,360.5 376.2,357.7 375.1,354.7 Z M258.3,155.2 L324,317.4 L224.7,239.2 L258.3,155.2 Z"/>
  </g>
</svg>
