<svg xmlns="http://www.w3.org/2000/svg" viewBox="0 0 128 128" enable-background="new 0 0 128 128"><switch><g><path fill="none" d="m.3 0h128v128h-128z"/><g><path d="m112.5 26.1l-40.4-24c-4.8-2.9-10.8-2.9-15.6 0l-40.4 24c-4.8 2.9-7.8 8.2-7.8 13.9v48c0 5.7 3 11 7.8 13.9l40.4 24c2.4 1.4 5.1 2.1 7.8 2.1 2.7 0 5.4-.7 7.8-2.1l40.4-24c4.8-2.9 7.8-8.2 7.8-13.9v-48c0-5.7-2.9-11-7.8-13.9" fill="#fff"/><path d="m112.5 26.1l-40.4-24c-2.4-1.4-5.1-2.1-7.8-2.1-2.7 0-5.4.7-7.8 2.1l-40.4 24c-4.8 2.9-7.8 8.2-7.8 13.9v48c0 5.7 3 11 7.8 13.9l40.4 24c2.4 1.4 5.1 2.1 7.8 2.1 2.7 0 5.4-.7 7.8-2.1l40.4-24c4.8-2.9 7.8-8.2 7.8-13.9v-48c0-5.7-2.9-11-7.8-13.9m-54.6 97.3l-40.4-24c-4-2.3-6.4-6.7-6.4-11.4v-48c0-4.7 2.5-9.1 6.4-11.4l40.4-24c1.9-1.2 4.1-1.8 6.4-1.8 2.2 0 4.4.6 6.4 1.8l40.4 24c3.3 2 5.6 5.4 6.2 9.2-1.3-2.9-4.4-3.6-7.9-1.6l-38.2 23.7c-4.8 2.8-8.3 5.9-8.3 11.7v47.1c0 3.4 1.4 5.7 3.5 6.3-.7.1-1.4.2-2.1.2-2.2 0-4.4-.7-6.4-1.8" fill="#283037"/><path d="m101.9 92.6l-10.1 6c-.3.2-.5.3-.5.7v2.6c0 .3.2.5.5.3l10.2-6.2c.3-.2.3-.5.3-.8v-2.3c.1-.3-.1-.4-.4-.3" fill="#4da825"/><path d="m80.5 70.5c.3-.2.6 0 .6.5v3.5c1.5-.6 2.7-.7 3.9-.5.2.1.4.4.3.8l-.8 3.1c-.1.2-.2.5-.3.6-.1.1-.1.1-.2.1-.1.1-.2.1-.3 0-.5-.1-1.8-.4-3.7.6-2.1 1-2.8 2.8-2.8 4.1 0 1.6.8 2.1 3.6 2.1 3.7.1 5.3 1.7 5.4 5.5 0 3.7-1.9 7.7-4.9 10.1l.1 3.4c0 .4-.3.9-.6 1.1l-2 1.2c-.3.2-.6 0-.6-.5v-3.4c-1.7.7-3.5.9-4.7.4-.2-.1-.3-.4-.2-.8l.7-3.1c.1-.2.2-.5.4-.6.1-.1.1-.1.2-.1.1-.1.2-.1.3 0 1.2.4 2.8.2 4.3-.5 1.9-1 3.2-2.9 3.2-4.8 0-1.8-1-2.5-3.3-2.5-2.9 0-5.7-.6-5.7-4.9 0-3.6 1.8-7.3 4.7-9.6v-3.5c0-.4.3-.9.6-1.1l1.8-1.2" fill="#fff"/></g></g></switch></svg>