<svg xmlns="http://www.w3.org/2000/svg" viewBox="0 0 392 392"><g fill="#e10098" transform="translate(21)"><path d="m32.468 298.66l-14.378-8.3 160.15-277.38 14.38 8.3z"/><path d="m14.8 268.2h320.3v16.6h-320.3z"/><path d="m181.35 370.03l-160.21-92.5 8.3-14.376 160.21 92.5-8.3 14.376m139.17-241.08l-160.21-92.5 8.3-14.376 160.21 92.5-8.3 14.376"/><path d="m29.482 128.88l-8.302-14.37 160.21-92.5 8.3 14.37z"/><path d="m317.57 298.66l-160.15-277.38 14.376-8.3 160.15 277.38-14.376 8.3m-290.07-195.16h16.6v185h-16.6v-185m278.4 0h16.6v185h-16.6v-185"/><path d="m178.52 363l-7.25-12.56 139.34-80.45 7.25 12.56z"/><path d="m344.5 293.9c-9.6 16.7-31 22.4-47.7 12.8-16.7-9.6-22.4-31-12.8-47.7 9.6-16.7 31-22.4 47.7-12.8 16.8 9.7 22.5 31 12.8 47.7m-278.6-160.9c-9.6 16.7-31 22.4-47.7 12.8-16.7-9.6-22.4-31-12.8-47.7 9.6-16.7 31-22.4 47.7-12.8 16.7 9.7 22.4 31 12.8 47.7m-60.4 160.9c-9.6-16.7-3.9-38 12.8-47.7 16.7-9.6 38-3.9 47.7 12.8 9.6 16.7 3.9 38-12.8 47.7-16.8 9.6-38.1 3.9-47.7-12.8m278.6-160.9c-9.6-16.7-3.9-38 12.8-47.7 16.7-9.6 38-3.9 47.7 12.8 9.6 16.7 3.9 38-12.8 47.7-16.7 9.6-38.1 3.9-47.7-12.8m-109.1 258.8c-19.3 0-34.9-15.6-34.9-34.9 0-19.3 15.6-34.9 34.9-34.9 19.3 0 34.9 15.6 34.9 34.9 0 19.2-15.6 34.9-34.9 34.9m0-321.8c-19.3 0-34.9-15.6-34.9-34.9 0-19.3 15.6-34.9 34.9-34.9 19.3 0 34.9 15.6 34.9 34.9 0 19.3-15.6 34.9-34.9 34.9"/></g></svg>