<svg xmlns="http://www.w3.org/2000/svg" viewBox="0 0 511.99999 511.99998" enable-background="new"><defs><linearGradient id="0" gradientUnits="userSpaceOnUse" x2="527.72" x1="84.31"><stop stop-color="#4a9ea1"/></linearGradient><linearGradient id="1" gradientUnits="userSpaceOnUse" x2="512.36" x1="99.67"><stop stop-color="#63d3d7"/></linearGradient></defs><g transform="translate(-50.02-515.51)"><path d="m84.31 899.51l221.7 128 221.7-128v-256l-221.7-127.99-221.7 128z" fill="url(#0)"/><path fill="url(#1)" d="m283.13 546.35l-160.74 92.81c.321 2.854.321 5.735 0 8.589l160.75 92.81c13.554-10 32.04-10 45.597 0l160.75-92.81c-.321-2.854-.323-5.734-.001-8.588l-160.74-92.81c-13.554 10-32.04 10-45.599 0zm221.79 127.03l-160.92 93.84c1.884 16.739-7.361 32.751-22.799 39.489l.181 184.58c2.632 1.149 5.127 2.589 7.438 4.294l160.75-92.81c-1.884-16.739 7.361-32.752 22.799-39.49v-185.61c-2.632-1.149-5.128-2.589-7.439-4.294zm-397.81 1.032c-2.311 1.705-4.805 3.146-7.438 4.295v185.61c15.438 6.738 24.683 22.75 22.799 39.489l160.74 92.81c2.311-1.705 4.807-3.146 7.439-4.295v-185.61c-15.438-6.738-24.683-22.75-22.799-39.489l-160.74-92.81z"/></g><g transform="translate(0-196.66)"><path d="m256 708.66l221.7-128v-256l-221.7 128v256" fill-opacity=".251"/><path d="m256 708.66v-256l-221.7-128v256l221.7 128" fill-opacity=".039"/><path d="m34.3 324.66l221.7 128 221.7-128-221.7-128-221.7 128" fill-opacity=".13"/></g></svg>