<svg xmlns="http://www.w3.org/2000/svg" viewBox="0 0 110.42 109.85"><defs><linearGradient gradientUnits="userSpaceOnUse" y2="168.1" x2="147.78" y1="111.92" x1="89.14" id="0"><stop stop-color="#ffe052"/><stop offset="1" stop-color="#ffc331"/></linearGradient><linearGradient gradientUnits="userSpaceOnUse" y2="131.85" x2="110.15" y1="77.07" x1="55.55" id="1"><stop stop-color="#387eb8"/><stop offset="1" stop-color="#366994"/></linearGradient></defs><g transform="translate(-44.938-67.47)" color="#000"><path d="m99.75 67.47c-28.03 0-26.28 12.156-26.28 12.156l.031 12.594h26.75v3.781h-37.37c0 0-17.938-2.034-17.938 26.25 0 28.28 15.656 27.28 15.656 27.28h9.344v-13.12c0 0-.504-15.656 15.406-15.656 15.91 0 26.531 0 26.531 0 0 0 14.906.241 14.906-14.406 0-14.647 0-24.22 0-24.22 0 0 2.263-14.656-27.03-14.656m-14.75 8.469c2.661 0 4.813 2.151 4.813 4.813 0 2.661-2.151 4.813-4.813 4.813-2.661 0-4.813-2.151-4.813-4.813 0-2.661 2.151-4.813 4.813-4.813" fill="url(#1)"/><path d="m100.55 177.31c28.03 0 26.28-12.156 26.28-12.156l-.031-12.594h-26.75v-3.781h37.38c0 0 17.938 2.034 17.938-26.25 0-28.28-15.656-27.28-15.656-27.28h-9.344v13.12c0 0 .504 15.656-15.406 15.656-15.91 0-26.531 0-26.531 0 0 0-14.906-.241-14.906 14.406 0 14.647 0 24.22 0 24.22 0 0-2.263 14.656 27.03 14.656m14.75-8.469c-2.661 0-4.813-2.151-4.813-4.813 0-2.661 2.151-4.813 4.813-4.813 2.661 0 4.813 2.151 4.813 4.813 0 2.661-2.151 4.813-4.813 4.813" fill="url(#0)"/></g></svg>