<svg xmlns="http://www.w3.org/2000/svg" xmlns:xlink="http://www.w3.org/1999/xlink" width="256" height="256" viewBox="0 0 256 256">
  <defs>
    <path id="octomonkey-a" d="M106.899921,138.177268 C105.965417,138.797258 103.922915,140.826932 102.435852,142.434529 C111.176128,140.662406 127.577503,140.866996 140.771004,143.037464 C146.813057,144.031444 155.051812,147.155872 158,160 C158,147.887383 152.869874,141.480709 147.840339,138.177268 C177.011643,135.274244 79.5392492,135.274244 106.899921,138.177268 Z"/>
    <path id="octomonkey-b" d="M67,106 C82.463973,106 95,81.673112 95,64 C95,46.326888 82.463973,32 67,32 C51.536027,32 39,46.326888 39,64 C39,81.673112 51.536027,106 67,106 Z"/>
    <filter id="octomonkey-c" width="119.6%" height="114.9%" x="-9.8%" y="-7.4%" filterUnits="objectBoundingBox">
      <feOffset dy="11" in="SourceAlpha" result="shadowOffsetInner1"/>
      <feComposite in="shadowOffsetInner1" in2="SourceAlpha" k2="-1" k3="1" operator="arithmetic" result="shadowInnerInner1"/>
      <feColorMatrix in="shadowInnerInner1" values="0 0 0 0 0   0 0 0 0 0   0 0 0 0 0  0 0 0 0.1 0"/>
    </filter>
    <path id="octomonkey-d" d="M189,106 C204.463973,106 217,81.673112 217,64 C217,46.326888 204.463973,32 189,32 C173.536027,32 161,46.326888 161,64 C161,81.673112 173.536027,106 189,106 Z"/>
    <filter id="octomonkey-e" width="119.6%" height="114.9%" x="-9.8%" y="-7.4%" filterUnits="objectBoundingBox">
      <feOffset dy="11" in="SourceAlpha" result="shadowOffsetInner1"/>
      <feComposite in="shadowOffsetInner1" in2="SourceAlpha" k2="-1" k3="1" operator="arithmetic" result="shadowInnerInner1"/>
      <feColorMatrix in="shadowInnerInner1" values="0 0 0 0 0   0 0 0 0 0   0 0 0 0 0  0 0 0 0.2 0"/>
    </filter>
    <path id="octomonkey-f" d="M128.982801,140 C170.394783,140 204,128.032515 204,86 C204,43.9674845 170.394783,25 128.982801,25 C87.5708185,25 53,42.9674845 53,86 C53,129.032515 87.5708185,140 128.982801,140 Z"/>
    <path id="octomonkey-g" d="M184,98.0635576 C184,132.256661 158.48951,133.151248 127,133.151248 C95.5104895,133.151248 70,128.380117 70,98.0635576 C70,90.8074631 73.5874126,84.0483613 79.7657343,78.4820422 C90.0297203,69.138578 109.368881,77.084448 127,80.084448 C144.631119,77.084448 163.870629,69.0391795 174.134615,78.3826437 C180.312937,84.0483613 184,90.8074631 184,98.0635576 Z"/>
    <filter id="octomonkey-h" width="102.6%" height="105.1%" x="-1.3%" y="-2.5%" filterUnits="objectBoundingBox">
      <feOffset dy="3" in="SourceAlpha" result="shadowOffsetInner1"/>
      <feComposite in="shadowOffsetInner1" in2="SourceAlpha" k2="-1" k3="1" operator="arithmetic" result="shadowInnerInner1"/>
      <feColorMatrix in="shadowInnerInner1" values="0 0 0 0 0   0 0 0 0 0   0 0 0 0 0  0 0 0 0.1 0"/>
    </filter>
  </defs>
  <g fill="none" fill-rule="evenodd">
    <path fill="#00A453" fill-rule="nonzero" d="M200.8,205.1 C200.8,219 168.6,230.2 128.9,230.2 C89.2,230.2 57,218.9 57,205.1 C57,191.2 89.2,180 128.9,180 C168.6,180 200.8,191.2 200.8,205.1 Z"/>
    <path fill="#7B5136" fill-rule="nonzero" d="M107.089249,137.937803 C103.148497,140.505135 99.2077443,144.849851 97.5910253,152.255616 C92.2356437,154.724204 75.4621843,160.846303 65.3576908,143.862415 C65.3576908,143.862415 59.6991744,133.790575 48.8873662,133.000627 C48.8873662,133.000627 38.3786929,132.80314 48.1800517,139.418956 C48.1800517,139.418956 55.1521522,142.677493 60.0023092,154.822948 C60.0023092,154.822948 66.3681401,175.55909 96.7826658,168.844529 L96.7826658,190.074389 C96.7826658,190.074389 96.1763962,197.677641 89.0022057,200.14623 C89.0022057,200.14623 84.7583184,203.009792 89.3053405,204.589689 C89.3053405,204.589689 109.009103,206.169585 109.009103,190.37062 L109.009103,167.067146 C109.009103,167.067146 108.200744,157.785254 112.848811,154.625461 L112.848811,192.937952 C112.848811,192.937952 112.545676,202.1211 107.695519,205.577124 C107.695519,205.577124 104.462081,211.205505 111.535226,209.724352 C111.535226,209.724352 125.075248,207.848225 125.681517,192.34549 L125.984652,153.539282 L129.21809,153.539282 L129.521225,192.34549 C130.127495,207.749482 143.667516,209.724352 143.667516,209.724352 C150.740662,211.304249 147.507224,205.577124 147.507224,205.577124 C142.657067,202.1211 142.353932,192.937952 142.353932,192.937952 L142.353932,154.921691 C147.001999,158.476458 146.193639,167.067146 146.193639,167.067146 L146.193639,190.37062 C146.193639,206.169585 165.897402,204.589689 165.897402,204.589689 C170.444424,203.009792 166.200537,200.14623 166.200537,200.14623 C159.127391,197.578898 158.420077,190.074389 158.420077,190.074389 L158.420077,159.463894 C158.420077,147.515926 153.266785,141.19634 148.214538,137.937803 C177.51757,135.074241 79.6050267,135.074241 107.089249,137.937803 Z"/>
    <g fill-rule="nonzero">
      <use fill="#7B5136" fill-rule="evenodd" xlink:href="#octomonkey-a"/>
      <use fill="#000" fill-opacity=".15" fill-rule="evenodd" xlink:href="#octomonkey-a"/>
    </g>
    <use fill="#E7C0B0" xlink:href="#octomonkey-b"/>
    <use fill="#000" filter="url(#octomonkey-c)" xlink:href="#octomonkey-b"/>
    <path stroke="#7B5136" stroke-width="8" d="M67,102 C78.5664582,102 91,81.6556743 91,64 C91,48.4260467 80.1272091,36 67,36 C53.8727909,36 43,48.4260467 43,64 C43,81.6556743 55.4335418,102 67,102 Z"/>
    <g transform="matrix(-1 0 0 1 378 0)">
      <use fill="#E7C0B0" xlink:href="#octomonkey-d"/>
      <use fill="#000" filter="url(#octomonkey-e)" xlink:href="#octomonkey-d"/>
      <path stroke="#7B5136" stroke-width="8" d="M189,102 C200.566458,102 213,81.6556743 213,64 C213,48.4260467 202.127209,36 189,36 C175.872791,36 165,48.4260467 165,64 C165,81.6556743 177.433542,102 189,102 Z"/>
    </g>
    <use fill="#A25C38" xlink:href="#octomonkey-f"/>
    <use fill="#7B5136" xlink:href="#octomonkey-f"/>
    <g fill-rule="nonzero">
      <use fill="#E7C0B0" fill-rule="evenodd" xlink:href="#octomonkey-g"/>
      <use fill="#000" filter="url(#octomonkey-h)" xlink:href="#octomonkey-g"/>
    </g>
    <path fill="#FFF" fill-rule="nonzero" d="M108,100.000479 C108,109.444657 102.655462,117 96,117 C89.3445378,117 84,109.345245 84,100.000479 C84,90.5563003 89.3445378,83.0009575 96,83.0009575 C102.655462,82.9015451 108,90.5563003 108,100.000479 Z"/>
    <path fill="#000" fill-rule="nonzero" d="M104,100.5 C104,106.855263 100.35443,112 96,112 C91.5443038,112 88,106.855263 88,100.5 C88,94.1447368 91.6455696,89 96,89 C100.35443,89 104,94.1447368 104,100.5 Z"/>
    <path fill="#FFF" fill-rule="nonzero" d="M171,100.000479 C171,109.444657 165.655462,117 159,117 C152.344538,117 147,109.345245 147,100.000479 C147,90.5563003 152.344538,83.0009575 159,83.0009575 C165.554622,82.9015451 171,90.5563003 171,100.000479 Z"/>
    <path fill="#000" d="M120.666201,122.144 C121.168884,121.952 132.831116,121.952 133.333799,122.144 C133.836481,122.336 134.138091,122.816 133.937018,123.296 C132.931653,126.08 130.116631,128 127,128 C123.883369,128 121.068347,126.08 120.062982,123.296 C119.861909,122.816 120.163519,122.336 120.666201,122.144 Z"/>
    <path fill="#AF5C51" d="M125 113C125 114.6 123.7 116 122 116 120.4 116 119 114.7 119 113 119 111.3 120.3 110 122 110 123.6 110 125 111.3 125 113zM135 113C135 114.6 133.7 116 132 116 130.4 116 129 114.7 129 113 129 111.3 130.3 110 132 110 133.6 110 135 111.3 135 113z"/>
    <path fill="#000" fill-rule="nonzero" d="M168,100.5 C168,106.855263 164.35443,112 160,112 C155.544304,112 152,106.855263 152,100.5 C152,94.1447368 155.64557,89 160,89 C164.455696,89 168,94.1447368 168,100.5 Z"/>
    <path fill="#FFF" d="M96 95.5C96 96.8333333 94.9166667 98 93.5 98 92.1666667 98 91 96.9166667 91 95.5 91 94.0833333 92.0833333 93 93.5 93 94.8333333 93 96 94.0833333 96 95.5zM160 95.5C160 96.8333333 158.916667 98 157.5 98 156.166667 98 155 96.9166667 155 95.5 155 94.0833333 156.083333 93 157.5 93 158.833333 93 160 94.0833333 160 95.5z"/>
  </g>
</svg>
